<?xml version="1.0" encoding="UTF-8" standalone="no"?>
<svg
   xmlns:dc="http://purl.org/dc/elements/1.1/"
   xmlns:cc="http://creativecommons.org/ns#"
   xmlns:rdf="http://www.w3.org/1999/02/22-rdf-syntax-ns#"
   xmlns:svg="http://www.w3.org/2000/svg"
   xmlns="http://www.w3.org/2000/svg"
   viewBox="0 0 697.4787 318.50266"
   height="318.50266"
   width="697.4787"
   xml:space="preserve"
   id="svg2"
   version="1.1"><metadata
     id="metadata8"><rdf:RDF><cc:Work
         rdf:about=""><dc:format>image/svg+xml</dc:format><dc:type
           rdf:resource="http://purl.org/dc/dcmitype/StillImage" /></cc:Work></rdf:RDF></metadata><defs
     id="defs6"><clipPath
       id="clipPath18"
       clipPathUnits="userSpaceOnUse"><path
         id="path16"
         d="M 0,238.877 H 523.109 V 0 H 0 Z" /></clipPath><clipPath
       id="clipPath210"
       clipPathUnits="userSpaceOnUse"><path
         id="path208"
         d="m 359.708,151.994 c 0,-23.131 18.372,-58.221 54.734,-70.267 v 0 c 19.717,-6.532 31.167,-3.733 34.886,-2.889 v 0 c 0,0 -8.124,-3.744 -21.719,-3.744 v 0 c -34.8,0 -76.701,33 -76.701,75.203 v 0 c 0,9.778 4.502,18.927 12.522,25.872 v 0 c -9.801,-6.967 -14.472,-19.748 -14.472,-31.625 v 0 c 0,-39.941 40.97,-75.329 75.197,-78.389 v 0 c -0.005,0 -3.399,-0.252 -5.129,-0.252 v 0 c -34.618,0 -76.167,33.377 -76.167,74.942 v 0 c 0,6.822 1.505,13.428 4.529,19.449 v 0 c -5.005,-6.886 -6.68,-14.956 -6.68,-23.15 v 0 c 0,-32.207 26.411,-65.214 59.022,-76.966 v 0 c -38.644,10.393 -62.972,41.338 -62.972,70.116 v 0 c 0,5.215 0.778,10.251 2.335,14.986 v 0 c -2.664,-6.655 -3.777,-11.527 -3.777,-18.636 v 0 c 0,-22.429 13.462,-47.786 38.737,-63.295 v 0 c -15.86,8.59 -30.157,21.112 -37.515,37.907 v 0 c 7.997,-29.584 35.028,-51.352 67.142,-51.352 v 0 c 38.408,0 69.544,31.136 69.544,69.545 v 0 c 0,2.65 -0.149,5.266 -0.437,7.839 v 0 c 0,-0.108 -0.317,-3.215 -1.471,-7.394 v 0 c -0.781,-2.823 -1.821,-5.658 -3.116,-8.46 v 0 c -0.686,-1.485 -1.457,-2.98 -2.221,-4.328 v 0 0.001 c -1.078,-1.901 -2.268,-3.762 -3.559,-5.544 v 0 C 453.008,88.794 446.01,87.038 434.459,87.038 v 0 c -10.357,0 -25.31,2.877 -43,15.807 v 0 c -17.735,12.963 -29.102,31.989 -29,54.311 v 0 h -10e-4 c 0.032,7.647 2.623,14.817 7.988,20.401 v 0 c -7.118,-6.742 -10.738,-15.839 -10.738,-25.563" /></clipPath><linearGradient
       id="linearGradient220"
       spreadMethod="pad"
       gradientTransform="matrix(103.54313,-92.349274,-92.349274,-103.54313,346.14865,158.90401)"
       gradientUnits="userSpaceOnUse"
       y2="0"
       x2="1"
       y1="0"
       x1="0"><stop
         id="stop216"
         offset="0"
         style="stop-opacity:1;stop-color:#006e8c" /><stop
         id="stop218"
         offset="1"
         style="stop-opacity:1;stop-color:#96e14b" /></linearGradient><clipPath
       id="clipPath230"
       clipPathUnits="userSpaceOnUse"><path
         id="path228"
         d="M 0,238.877 H 523.109 V 0 H 0 Z" /></clipPath><clipPath
       id="clipPath242"
       clipPathUnits="userSpaceOnUse"><path
         id="path240"
         d="m 362.458,157.156 c 0.632,0.242 28.636,10.757 59.958,-12.445 v 0 C 454.097,121.242 451.79,90.969 451.79,90.969 v 0 l -0.008,-0.104 c 0.004,0.002 0.005,0.003 0.008,0.004 v 0 c 0.88,0.557 1.831,1.26 2.824,2.099 v 0 c 0.539,44.251 -37.699,66.495 -48.706,71.126 v 0 c 4.08,-0.528 51.045,-20.173 54.191,-65.524 v 0 c 0.779,0.937 1.555,1.936 2.321,2.993 v 0 c -1.963,38.158 -31.977,58.47 -38.761,63.582 v 0 c 10.59,-5.662 37.685,-23.993 42.32,-58.039 v 0 c 0.782,1.38 1.526,2.824 2.221,4.328 v 0 c -2.659,25.195 -19.545,44.552 -30.942,54.109 v 0 c 12.98,-8.531 30.323,-28.1 33.343,-48.017 v 0 c 0.174,0.532 0.339,1.067 0.499,1.609 v 0 c -1.294,14.079 -10.358,31.674 -19.942,41.908 v 0 c 13.197,-13.111 19.965,-27.224 21.124,-37.029 v 0 c 0.287,1.447 0.505,3.041 0.505,3.269 v 0 c -3.919,34.858 -33.474,61.71 -69.107,61.71 v 0 c -28.052,0 -41.145,-14.522 -41.222,-31.837" /></clipPath><linearGradient
       id="linearGradient252"
       spreadMethod="pad"
       gradientTransform="matrix(100.32315,-79.100944,-79.100944,-100.32315,373.66339,190.00047)"
       gradientUnits="userSpaceOnUse"
       y2="0"
       x2="1"
       y1="0"
       x1="0"><stop
         id="stop248"
         offset="0"
         style="stop-opacity:1;stop-color:#788296" /><stop
         id="stop250"
         offset="1"
         style="stop-opacity:1;stop-color:#d0d3da" /></linearGradient></defs><g
     transform="matrix(1.3333333,0,0,-1.3333333,0,318.50267)"
     id="g10"><g
       id="g12"><g
         clip-path="url(#clipPath18)"
         id="g14"><g
           transform="translate(282.9387,111.5348)"
           id="g20"><path
             id="path22"
             style="fill:#002850;fill-opacity:1;fill-rule:nonzero;stroke:none"
             d="M 0,0 C 0.855,0 1.284,0.46 1.284,1.379 1.284,2.307 0.855,2.771 0,2.771 -0.855,2.771 -1.283,2.307 -1.283,1.379 -1.283,0.46 -0.855,0 0,0" /></g><path
           id="path24"
           style="fill:#002850;fill-opacity:1;fill-rule:nonzero;stroke:none"
           d="m 316.972,97.236 h 2.203 v 18.823 h -2.203 z" /><g
           transform="translate(242.4202,111.5348)"
           id="g26"><path
             id="path28"
             style="fill:#002850;fill-opacity:1;fill-rule:nonzero;stroke:none"
             d="M 0,0 C 0.863,0 1.296,0.46 1.296,1.379 1.296,2.307 0.863,2.771 0,2.771 -0.855,2.771 -1.283,2.307 -1.283,1.379 -1.283,0.46 -0.855,0 0,0" /></g><g
           transform="translate(244.551,99.1716)"
           id="g30"><path
             id="path32"
             style="fill:#002850;fill-opacity:1;fill-rule:nonzero;stroke:none"
             d="m 0,0 c -2.26,0 -3.391,1.246 -3.391,3.738 0,2.678 1.602,4.415 4.662,4.415 H 2.337 L 2.337,0 Z m -7.677,-7.887 h 5.849 c 4.182,0 6.272,1.936 6.272,5.807 V 10.077 H 1.199 c -3.906,0 -6.793,-2.243 -6.793,-6.363 0,-3.707 2.045,-5.65 5.655,-5.65 h 2.276 v -0.168 c 0,-1.332 -0.355,-2.305 -1.066,-2.922 -0.709,-0.617 -1.876,-0.925 -3.499,-0.925 h -5.013 c -4.947,0 -4.743,5.716 -3.245,9.883 h -2.059 c -2.184,-5.665 -1.219,-11.819 4.868,-11.819" /></g><g
           transform="translate(302.6887,99.1716)"
           id="g34"><path
             id="path36"
             style="fill:#002850;fill-opacity:1;fill-rule:nonzero;stroke:none"
             d="m 0,0 h -7.991 c -1.381,0 -2.18,0.71 -2.399,2.129 1.712,4.162 3.835,6.242 6.37,6.242 C -1.34,8.371 0,6.892 0,3.932 Z M 7.859,0 C 6.789,0.295 2.107,-1.048 2.107,2.25 v 1.791 c 0,4.193 -1.893,6.29 -5.679,6.29 -2.987,0 -5.276,-1.858 -6.866,-5.576 v 4.584 h -2.107 V 0 h -3.633 c -1.457,0 -2.458,0.884 -2.458,2.371 v 7.706 H -20.84 V 0 h -3.615 c -0.679,0 -1.306,0.252 -1.883,0.756 -0.577,0.505 -0.943,1.058 -1.097,1.664 -1.162,4.483 -3.184,7.294 -6.066,8.432 L -34.3,8.964 C -31.636,7.73 -29.885,4.742 -29.045,0 h -8.258 v -1.936 h 10.39 v 1.392 c 0.596,-0.878 1.386,-1.335 2.365,-1.382 v -0.01 h 5.912 v 1.416 c 0.477,-0.944 1.405,-1.416 2.785,-1.416 h 5.413 v 1.912 c 0.662,-1.274 1.505,-1.912 2.531,-1.912 H 2.107 V -0.52 C 2.521,-1.366 3.31,-1.83 4.469,-1.917 v -0.019 h 5.594 V 16.888 H 7.859 Z" /></g><g
           transform="translate(260.549,99.1716)"
           id="g38"><path
             id="path40"
             style="fill:#002850;fill-opacity:1;fill-rule:nonzero;stroke:none"
             d="m 0,0 h -2.325 c -2.269,0 -3.403,1.246 -3.403,3.738 0,2.678 1.601,4.415 4.662,4.415 H 0 Z m -0.945,-5.062 c -0.646,-0.593 -1.522,-0.889 -2.627,-0.889 -1.058,0 -2.229,0.33 -3.512,0.991 l -0.993,-1.657 c 1.315,-0.847 2.801,-1.27 4.456,-1.27 1.816,0 3.225,0.472 4.226,1.415 1.001,0.944 1.501,2.258 1.501,3.944 v 12.605 h -3.245 c -3.905,0 -6.793,-2.243 -6.793,-6.363 0,-3.753 2.116,-5.65 5.534,-5.65 h 2.421 v -0.713 c 0,-1.016 -0.322,-1.821 -0.968,-2.413" /></g><g
           transform="translate(246.2219,111.5348)"
           id="g42"><path
             id="path44"
             style="fill:#002850;fill-opacity:1;fill-rule:nonzero;stroke:none"
             d="M 0,0 C 0.856,0 1.284,0.46 1.284,1.379 1.284,2.307 0.856,2.771 0,2.771 -0.863,2.771 -1.295,2.307 -1.295,1.379 -1.295,0.46 -0.863,0 0,0" /></g><g
           transform="translate(137.9524,102.2702)"
           id="g46"><path
             id="path48"
             style="fill:#002850;fill-opacity:1;fill-rule:nonzero;stroke:none"
             d="M 0,0 V -3.194 C 0,-5.38 -1.444,-6.473 -4.335,-6.473 h -3.027 c -2.791,0 -2.532,3.859 -1.961,6.593 h -1.987 c -1.476,-4.223 -0.451,-8.528 4.021,-8.528 h 2.954 c 3.654,0 6.539,1.566 6.539,5.19 v 3.145 c 0,3.42 1.474,5.13 4.42,5.13 H 7.266 V -5.033 H 9.482 V 6.979 H 6.479 C 2.16,6.979 0,4.653 0,0" /></g><g
           transform="translate(135.7493,92.5319)"
           id="g50"><path
             id="path52"
             style="fill:#002850;fill-opacity:1;fill-rule:nonzero;stroke:none"
             d="m 0,0 c -0.864,0 -1.296,-0.464 -1.296,-1.392 0,-0.919 0.432,-1.379 1.296,-1.379 0.855,0 1.283,0.46 1.283,1.379 C 1.283,-0.464 0.855,0 0,0" /></g><g
           transform="translate(154.4524,110.0241)"
           id="g54"><path
             id="path56"
             style="fill:#002850;fill-opacity:1;fill-rule:nonzero;stroke:none"
             d="m 0,0 -0.799,-1.887 c 2.664,-1.234 4.416,-4.222 5.256,-8.965 h -8.259 v -1.935 h 10.39 v 1.888 C 5.578,-4.956 3.383,-1.323 0,0" /></g><g
           transform="translate(183.0129,100.7819)"
           id="g58"><path
             id="path60"
             style="fill:#002850;fill-opacity:1;fill-rule:nonzero;stroke:none"
             d="m 0,0 c -1.937,1.476 -3.152,3.274 -3.646,5.396 0.834,1.017 2.752,1.935 4.469,1.935 1.413,0 2.438,-0.222 3.076,-0.666 C 3.729,3.851 2.43,1.629 0,0 m -11.408,-1.609 h -2.324 c -2.269,0 -3.404,1.246 -3.404,3.738 0,2.678 1.601,4.416 4.662,4.416 h 1.066 z m 42.732,0 h -3.298 c -1.416,0 -2.458,0.86 -2.458,2.371 V 8.468 H 23.462 V -1.609 c -0.184,0.084 -4.238,-0.723 -4.238,2.746 v 5.408 h -2.108 v -8.154 h -1.538 c -1.591,0 -2.7,1.128 -2.7,2.746 V 6.545 H 10.771 V -1.609 H 4.468 c -0.88,0 -1.796,0.173 -2.748,0.52 1.38,0.943 2.467,2.216 3.262,3.817 0.795,1.601 1.194,3.26 1.194,4.978 -1.277,1.04 -3.084,1.561 -5.425,1.561 -2.491,0 -5.219,-1.136 -6.77,-3.218 0.203,-1.356 0.717,-2.704 1.544,-4.047 0.828,-1.343 1.75,-2.381 2.767,-3.115 -0.799,-0.33 -1.784,-0.496 -2.954,-0.496 H -9.301 V 8.468 h -3.245 c -3.905,0 -6.794,-2.243 -6.794,-6.364 0,-3.752 2.116,-5.649 5.534,-5.649 h 2.422 v -0.713 c 0,-2.787 -2.843,-4.508 -7.108,-2.31 l -0.992,-1.659 c 3.577,-2.301 10.183,-1.875 10.183,4.089 v 0.593 h 4.663 c 1.663,0 3.201,0.412 4.614,1.234 1.534,-0.822 3.063,-1.234 4.589,-1.234 h 8.313 v 1.416 c 0.46,-0.943 1.385,-1.416 2.773,-1.416 h 3.573 v 1.416 c 0.46,-0.943 1.383,-1.416 2.772,-1.416 h 3.572 v 1.416 c 0.426,-0.844 1.216,-1.308 2.366,-1.396 v -0.02 h 5.594 v 18.823 h -2.204 z" /></g><path
           id="path62"
           style="fill:#002850;fill-opacity:1;fill-rule:nonzero;stroke:none"
           d="m 220.76,97.237 h 2.204 v 18.823 h -2.204 z" /><g
           transform="translate(131.9582,92.5319)"
           id="g64"><path
             id="path66"
             style="fill:#002850;fill-opacity:1;fill-rule:nonzero;stroke:none"
             d="m 0,0 c -0.863,0 -1.295,-0.464 -1.295,-1.392 0,-0.919 0.432,-1.379 1.295,-1.379 0.856,0 1.284,0.46 1.284,1.379 C 1.284,-0.464 0.856,0 0,0" /></g><g
           transform="translate(90.2327,112.9157)"
           id="g68"><path
             id="path70"
             style="fill:#002850;fill-opacity:1;fill-rule:nonzero;stroke:none"
             d="m 0,0 c 0,-0.92 0.428,-1.38 1.283,-1.38 0.856,0 1.284,0.46 1.284,1.38 0,0.927 -0.428,1.391 -1.284,1.391 C 0.428,1.391 0,0.927 0,0" /></g><g
           transform="translate(100.3967,112.9157)"
           id="g72"><path
             id="path74"
             style="fill:#002850;fill-opacity:1;fill-rule:nonzero;stroke:none"
             d="m 0,0 c 0,-0.92 0.432,-1.38 1.296,-1.38 0.855,0 1.283,0.46 1.283,1.38 0,0.927 -0.428,1.391 -1.283,1.391 C 0.432,1.391 0,0.927 0,0" /></g><g
           transform="translate(97.8899,111.5358)"
           id="g76"><path
             id="path78"
             style="fill:#002850;fill-opacity:1;fill-rule:nonzero;stroke:none"
             d="M 0,0 C 0.864,0 1.296,0.46 1.296,1.38 1.296,2.307 0.864,2.771 0,2.771 -0.855,2.771 -1.283,2.307 -1.283,1.38 -1.283,0.46 -0.855,0 0,0" /></g><g
           transform="translate(53.8918,111.5358)"
           id="g80"><path
             id="path82"
             style="fill:#002850;fill-opacity:1;fill-rule:nonzero;stroke:none"
             d="M 0,0 C 0.864,0 1.296,0.46 1.296,1.38 1.296,2.307 0.864,2.771 0,2.771 -0.855,2.771 -1.283,2.307 -1.283,1.38 -1.283,0.46 -0.855,0 0,0" /></g><g
           transform="translate(69.0803,95.9186)"
           id="g84"><path
             id="path86"
             style="fill:#002850;fill-opacity:1;fill-rule:nonzero;stroke:none"
             d="m 0,0 c -0.863,0 -1.295,-0.464 -1.295,-1.392 0,-0.919 0.432,-1.379 1.295,-1.379 0.855,0 1.284,0.46 1.284,1.379 C 1.284,-0.464 0.855,0 0,0" /></g><g
           transform="translate(65.2785,95.9186)"
           id="g88"><path
             id="path90"
             style="fill:#002850;fill-opacity:1;fill-rule:nonzero;stroke:none"
             d="m 0,0 c -0.856,0 -1.284,-0.464 -1.284,-1.392 0,-0.919 0.428,-1.379 1.284,-1.379 0.863,0 1.296,0.46 1.296,1.379 C 1.296,-0.464 0.863,0 0,0" /></g><g
           transform="translate(57.6946,111.5358)"
           id="g92"><path
             id="path94"
             style="fill:#002850;fill-opacity:1;fill-rule:nonzero;stroke:none"
             d="M 0,0 C 0.855,0 1.283,0.46 1.283,1.38 1.283,2.307 0.855,2.771 0,2.771 -0.864,2.771 -1.296,2.307 -1.296,1.38 -1.296,0.46 -0.864,0 0,0" /></g><g
           transform="translate(79.0393,99.1725)"
           id="g96"><path
             id="path98"
             style="fill:#002850;fill-opacity:1;fill-rule:nonzero;stroke:none"
             d="m 0,0 h -2.253 c -0.581,0.799 -0.872,2.028 -0.872,3.69 0,2.466 1.24,4.73 3.597,4.73 2.237,0 3.451,-1.705 3.451,-3.992 C 3.923,1.793 2.645,0 0,0 m -20.728,0 h -2.833 c -2.26,0 -3.39,1.246 -3.39,3.738 0,2.678 1.6,4.416 4.662,4.416 h 1.561 z M 36.757,0 H 32.963 C 31.505,0 30.504,0.884 30.504,2.371 V 16.888 H 28.301 V 0 h -3.795 c -1.458,0 -2.458,0.884 -2.458,2.371 v 7.706 H 19.844 V 0 c -1.459,0.384 -6.253,-1.203 -6.253,2.371 v 7.706 H 11.387 V 0 H 4.141 c 1.302,0.902 2.01,2.757 2.01,4.355 0,3.886 -2.419,5.976 -5.655,5.976 -3.651,0 -5.824,-2.935 -5.824,-6.641 0,-1.597 0.274,-2.827 0.823,-3.69 h -3.601 c -1.457,0 -2.458,0.884 -2.458,2.371 v 7.706 h -2.204 V 0 h -5.852 v 10.077 h -3.742 c -3.906,0 -6.793,-2.243 -6.793,-6.363 0,-3.617 2.219,-5.65 5.655,-5.65 h 12.936 v 1.416 c 0.476,-0.943 1.405,-1.416 2.785,-1.416 h 21.37 v 1.416 c 0.476,-0.943 1.404,-1.416 2.785,-1.416 h 5.672 v 1.416 c 0.475,-0.943 1.404,-1.416 2.785,-1.416 h 5.671 v 1.416 c 0.476,-0.943 1.405,-1.416 2.785,-1.416 h 5.672 v 18.824 h -2.204 z" /></g><g
           transform="translate(53.7893,69.2848)"
           id="g100"><path
             id="path102"
             style="fill:#002850;fill-opacity:1;fill-rule:nonzero;stroke:none"
             d="m 0,0 c -1.142,0 -2.352,0.205 -3.54,0.593 -0.273,0.093 -0.343,0.252 -0.273,0.48 l 0.228,0.754 c 0.091,0.251 0.251,0.251 0.48,0.16 1.004,-0.365 2.101,-0.64 3.152,-0.64 1.873,0 3.517,0.799 3.517,2.833 0,1.416 -0.982,2.239 -2.215,2.946 l -2.833,1.599 c -1.462,0.822 -2.421,2.033 -2.421,3.563 0,2.695 2.17,3.86 4.591,3.86 1.256,0 2.261,-0.159 3.357,-0.616 0.275,-0.114 0.366,-0.252 0.275,-0.503 L 4.09,14.39 C 3.998,14.139 3.793,14.161 3.609,14.229 2.696,14.595 1.668,14.87 0.777,14.87 c -1.507,0 -3.06,-0.595 -3.06,-2.307 0,-1.326 0.799,-2.08 1.895,-2.696 L 1.988,8.52 C 3.77,7.515 5.14,6.419 5.14,4.271 5.14,1.37 2.833,0 0,0" /></g><g
           transform="translate(68.6623,77.6676)"
           id="g104"><path
             id="path106"
             style="fill:#002850;fill-opacity:1;fill-rule:nonzero;stroke:none"
             d="m 0,0 c -0.595,1.232 -1.827,1.918 -3.038,1.918 -1.965,0 -3.403,-1.759 -3.403,-4.682 0,-2.901 1.438,-4.385 3.06,-4.385 1.667,0 2.924,1.37 3.381,2.763 z m 2.444,-7.949 c 0,-0.183 -0.069,-0.229 -0.274,-0.229 H 1.508 c -0.571,0 -0.846,0.137 -1.051,0.343 -0.298,0.297 -0.434,0.776 -0.434,1.302 v 0.297 c -0.458,-1.119 -2.01,-2.147 -3.518,-2.147 -3.106,0 -4.454,2.696 -4.454,5.528 0,3.746 2.17,5.916 4.819,5.916 1.097,0 2.376,-0.457 3.13,-1.44 l 0.023,0.846 c 0,0.273 0.16,0.365 0.411,0.365 h 0.663 c 0.273,0 0.365,-0.092 0.365,-0.365 v -8.064 c 0,-0.639 0,-1.074 0.091,-1.257 0.092,-0.205 0.251,-0.273 0.48,-0.273 h 0.159 c 0.183,0 0.252,-0.046 0.252,-0.251 z" /></g><g
           transform="translate(81.9133,69.8776)"
           id="g108"><path
             id="path110"
             style="fill:#002850;fill-opacity:1;fill-rule:nonzero;stroke:none"
             d="m 0,0 c 0,-0.272 -0.114,-0.388 -0.365,-0.388 h -0.708 c -0.252,0 -0.365,0.116 -0.365,0.388 l -0.024,0.823 c -1.051,-0.936 -2.284,-1.416 -3.586,-1.416 -2.564,0 -3.609,1.603 -3.609,4.157 v 6.67 c 0,0.274 0.114,0.388 0.366,0.388 h 0.73 c 0.251,0 0.366,-0.114 0.366,-0.388 V 3.771 c 0,-4.242 3.775,-3.628 5.733,-1.668 v 8.131 c 0,0.274 0.114,0.388 0.366,0.388 h 0.731 C -0.114,10.622 0,10.508 0,10.234 Z" /></g><g
           transform="translate(92.468,77.7126)"
           id="g112"><path
             id="path114"
             style="fill:#002850;fill-opacity:1;fill-rule:nonzero;stroke:none"
             d="m 0,0 c -0.502,1.028 -1.735,1.873 -2.992,1.873 -2.17,0 -3.586,-1.69 -3.586,-4.567 0,-2.765 1.279,-4.592 3.357,-4.592 1.211,0 2.581,0.776 3.221,1.736 z m -3.448,-8.428 c -3.289,0 -4.638,2.718 -4.638,5.687 0,3.472 2.079,5.757 4.98,5.757 1.073,0 2.421,-0.503 3.106,-1.394 V 7.446 C 0,7.721 0.069,7.812 0.297,7.858 L 1.051,7.972 C 1.325,8.018 1.462,7.949 1.462,7.698 V -7.835 c 0,-0.296 -0.137,-0.388 -0.365,-0.388 H 0.525 c -0.319,0 -0.433,0.092 -0.433,0.411 l -0.023,0.96 c -0.799,-0.96 -2.147,-1.576 -3.517,-1.576" /></g><g
           transform="translate(98.6838,69.8776)"
           id="g116"><path
             id="path118"
             style="fill:#002850;fill-opacity:1;fill-rule:nonzero;stroke:none"
             d="m 0,0 c 0,-0.272 -0.114,-0.388 -0.366,-0.388 h -0.731 c -0.251,0 -0.365,0.116 -0.365,0.388 v 10.234 c 0,0.274 0.114,0.388 0.365,0.388 h 0.731 C -0.114,10.622 0,10.508 0,10.234 Z m -0.731,12.29 c -0.525,0 -0.937,0.297 -0.937,0.891 0,0.57 0.412,0.89 0.937,0.89 0.525,0 0.96,-0.32 0.96,-0.89 0,-0.594 -0.435,-0.891 -0.96,-0.891" /></g><g
           transform="translate(107.8303,78.4216)"
           id="g120"><path
             id="path122"
             style="fill:#002850;fill-opacity:1;fill-rule:nonzero;stroke:none"
             d="m 0,0 h 5.482 c 0.297,0 0.343,-0.092 0.343,-0.32 v -0.594 c 0,-0.229 -0.046,-0.319 -0.343,-0.319 H 0 V -8.544 C 0,-8.816 -0.113,-8.932 -0.388,-8.932 H -1.21 c -0.274,0 -0.389,0.116 -0.389,0.388 V 6.372 c 0,0.298 0.092,0.389 0.389,0.389 h 7.629 c 0.319,0 0.365,-0.091 0.343,-0.32 L 6.693,5.847 C 6.646,5.572 6.579,5.527 6.281,5.527 H 0 Z" /></g><g
           transform="translate(124.6213,69.8776)"
           id="g124"><path
             id="path126"
             style="fill:#002850;fill-opacity:1;fill-rule:nonzero;stroke:none"
             d="m 0,0 c 0,-0.272 -0.114,-0.388 -0.365,-0.388 h -0.708 c -0.251,0 -0.365,0.116 -0.365,0.388 l -0.024,0.823 c -1.051,-0.936 -2.284,-1.416 -3.586,-1.416 -2.564,0 -3.608,1.603 -3.608,4.157 v 6.67 c 0,0.274 0.113,0.388 0.365,0.388 h 0.731 c 0.25,0 0.366,-0.114 0.366,-0.388 V 3.771 c 0,-4.242 3.774,-3.628 5.732,-1.668 v 8.131 c 0,0.274 0.114,0.388 0.366,0.388 h 0.731 C -0.114,10.622 0,10.508 0,10.234 Z" /></g><g
           transform="translate(129.1467,69.8776)"
           id="g128"><path
             id="path130"
             style="fill:#002850;fill-opacity:1;fill-rule:nonzero;stroke:none"
             d="m 0,0 c 0,-0.272 -0.114,-0.388 -0.365,-0.388 h -0.731 c -0.252,0 -0.366,0.116 -0.366,0.388 v 10.211 c 0,0.274 0.114,0.411 0.389,0.411 h 0.684 c 0.252,0 0.367,-0.137 0.367,-0.411 L 0,9.435 c 1.051,0.936 2.513,1.416 3.814,1.416 2.673,0 3.61,-1.622 3.61,-4.112 L 7.424,0 c 0,-0.272 -0.114,-0.388 -0.365,-0.388 H 6.327 C 6.076,-0.388 5.962,-0.272 5.962,0 V 6.533 C 5.962,8.361 5.528,9.708 3.427,9.708 2.284,9.708 0.868,9.046 0,8.247 Z" /></g><g
           transform="translate(147.1262,77.7126)"
           id="g132"><path
             id="path134"
             style="fill:#002850;fill-opacity:1;fill-rule:nonzero;stroke:none"
             d="m 0,0 c -0.503,1.028 -1.736,1.873 -2.993,1.873 -2.17,0 -3.586,-1.69 -3.586,-4.567 0,-2.765 1.279,-4.592 3.357,-4.592 1.212,0 2.581,0.776 3.222,1.736 z m -3.449,-8.428 c -3.289,0 -4.637,2.718 -4.637,5.687 0,3.472 2.078,5.757 4.98,5.757 1.073,0 2.42,-0.503 3.106,-1.394 L 0,7.446 C 0,7.721 0.068,7.812 0.296,7.858 L 1.05,7.972 C 1.324,8.018 1.462,7.949 1.462,7.698 V -7.835 c 0,-0.296 -0.138,-0.388 -0.366,-0.388 H 0.524 c -0.319,0 -0.433,0.092 -0.433,0.411 l -0.023,0.96 c -0.799,-0.96 -2.147,-1.576 -3.517,-1.576" /></g><g
           transform="translate(161.9592,80.4997)"
           id="g136"><path
             id="path138"
             style="fill:#002850;fill-opacity:1;fill-rule:nonzero;stroke:none"
             d="M 0,0 C 0.16,0 0.252,-0.022 0.252,-0.229 V -0.846 C 0.252,-1.051 0.16,-1.073 0,-1.073 h -2.991 v -9.549 c 0,-0.273 -0.114,-0.388 -0.366,-0.388 h -0.731 c -0.251,0 -0.365,0.115 -0.365,0.388 v 9.549 h -1.348 c -0.16,0 -0.252,0.022 -0.252,0.227 v 0.617 c 0,0.207 0.092,0.229 0.252,0.229 h 1.348 v 0.319 c 0,0.892 0.022,1.44 0.068,1.805 0.206,2.033 1.439,3.243 3.449,3.243 0.64,0 1.394,-0.137 1.873,-0.342 C 1.166,4.934 1.212,4.843 1.166,4.637 L 1.028,4.111 C 0.983,3.906 0.846,3.883 0.663,3.952 c -0.57,0.205 -0.959,0.274 -1.484,0.274 -1.668,0 -2.17,-1.051 -2.17,-3.129 l 0,-1.097 z" /></g><g
           transform="translate(168.2659,79.6091)"
           id="g140"><path
             id="path142"
             style="fill:#002850;fill-opacity:1;fill-rule:nonzero;stroke:none"
             d="m 0,0 c -2.719,0 -3.563,-2.421 -3.563,-4.546 0,-2.238 0.776,-4.683 3.449,-4.683 2.649,0 3.586,2.308 3.586,4.591 C 3.472,-2.376 2.604,0 0,0 m -0.138,-10.324 c -3.425,0 -4.932,2.512 -4.932,5.733 0,3.174 1.781,5.71 5.07,5.71 3.427,0 4.979,-2.421 4.979,-5.71 0,-3.198 -1.804,-5.733 -5.117,-5.733" /></g><g
           transform="translate(179.8489,80.7282)"
           id="g144"><path
             id="path146"
             style="fill:#002850;fill-opacity:1;fill-rule:nonzero;stroke:none"
             d="M 0,0 C 0.114,0 0.389,-0.023 0.571,-0.068 0.73,-0.114 0.777,-0.229 0.754,-0.365 L 0.617,-1.074 C 0.595,-1.211 0.503,-1.279 0.32,-1.233 c -0.206,0.046 -0.388,0.068 -0.663,0.068 -0.822,0 -1.735,-0.616 -2.329,-1.53 v -8.156 c 0,-0.272 -0.115,-0.387 -0.365,-0.387 h -0.732 c -0.251,0 -0.365,0.115 -0.365,0.387 V -0.64 c 0,0.275 0.114,0.411 0.388,0.411 h 0.663 c 0.251,0 0.389,-0.136 0.389,-0.411 l 0.022,-0.799 C -2.102,-0.594 -1.119,0 0,0" /></g><g
           transform="translate(196.2424,82.7614)"
           id="g148"><path
             id="path150"
             style="fill:#002850;fill-opacity:1;fill-rule:nonzero;stroke:none"
             d="m 0,0 c -1.164,0.959 -2.695,1.187 -4.317,1.187 h -2.399 v -13.225 h 2.033 c 2.262,0 3.792,0.205 4.912,1.325 1.233,1.234 1.804,3.061 1.804,5.208 C 2.033,-3.222 1.348,-1.119 0,0 m 1.462,-11.627 c -1.256,-1.187 -3.312,-1.644 -5.596,-1.644 h -3.792 c -0.274,0 -0.388,0.114 -0.388,0.388 V 2.033 c 0,0.274 0.114,0.388 0.388,0.388 h 2.81 c 3.084,0 4.408,-0.229 5.802,-1.119 1.895,-1.235 3.037,-3.7 3.037,-6.83 0,-2.535 -0.777,-4.705 -2.261,-6.099" /></g><g
           transform="translate(210.8645,76.3884)"
           id="g152"><path
             id="path154"
             style="fill:#002850;fill-opacity:1;fill-rule:nonzero;stroke:none"
             d="m 0,0 c 0,1.805 -0.914,3.221 -2.832,3.221 -2.147,0 -3.335,-1.737 -3.54,-3.632 l 6.372,0 z m -2.581,-5.871 c 0.982,0 2.125,0.206 2.81,0.503 0.183,0.092 0.342,0.046 0.411,-0.159 L 0.8,-6.03 c 0.068,-0.206 0.023,-0.343 -0.205,-0.434 -0.914,-0.434 -2.353,-0.64 -3.313,-0.64 -3.495,0 -5.208,2.352 -5.208,5.734 0,3.175 1.942,5.71 5.14,5.71 2.718,0 4.248,-2.102 4.248,-4.66 v -0.502 c 0,-0.457 -0.068,-0.617 -0.639,-0.617 h -7.241 c 0,-2.421 1.21,-4.432 3.837,-4.432" /></g><g
           transform="translate(219.0227,71.2028)"
           id="g156"><path
             id="path158"
             style="fill:#002850;fill-opacity:1;fill-rule:nonzero;stroke:none"
             d="m 0,0 2.991,8.954 c 0.092,0.251 0.184,0.343 0.435,0.343 h 0.685 c 0.251,0 0.388,-0.137 0.297,-0.389 L 0.753,-1.394 C 0.661,-1.622 0.502,-1.713 0.296,-1.713 h -0.845 c -0.274,0 -0.433,0.114 -0.503,0.319 L -4.684,8.908 c -0.09,0.252 0.046,0.389 0.298,0.389 h 0.799 c 0.32,0 0.411,-0.068 0.481,-0.251 L -0.046,0 Z" /></g><g
           transform="translate(233.2776,76.3884)"
           id="g160"><path
             id="path162"
             style="fill:#002850;fill-opacity:1;fill-rule:nonzero;stroke:none"
             d="m 0,0 c 0,1.805 -0.913,3.221 -2.832,3.221 -2.147,0 -3.335,-1.737 -3.54,-3.632 l 6.372,0 z m -2.581,-5.871 c 0.982,0 2.125,0.206 2.81,0.503 0.183,0.092 0.343,0.046 0.412,-0.159 L 0.8,-6.03 c 0.068,-0.206 0.023,-0.343 -0.205,-0.434 -0.914,-0.434 -2.353,-0.64 -3.313,-0.64 -3.494,0 -5.208,2.352 -5.208,5.734 0,3.175 1.942,5.71 5.14,5.71 2.718,0 4.248,-2.102 4.248,-4.66 v -0.502 c 0,-0.457 -0.068,-0.617 -0.639,-0.617 h -7.241 c 0,-2.421 1.211,-4.432 3.837,-4.432" /></g><g
           transform="translate(239.4485,69.8786)"
           id="g164"><path
             id="path166"
             style="fill:#002850;fill-opacity:1;fill-rule:nonzero;stroke:none"
             d="m 0,0 c 0,-0.274 -0.114,-0.389 -0.365,-0.389 h -0.732 c -0.251,0 -0.365,0.115 -0.365,0.389 v 15.281 c 0,0.274 0.045,0.365 0.297,0.41 l 0.754,0.116 C -0.138,15.853 0,15.761 0,15.486 Z" /></g><g
           transform="translate(247.9016,79.6091)"
           id="g168"><path
             id="path170"
             style="fill:#002850;fill-opacity:1;fill-rule:nonzero;stroke:none"
             d="m 0,0 c -2.719,0 -3.564,-2.422 -3.564,-4.546 0,-2.238 0.777,-4.683 3.45,-4.683 2.648,0 3.586,2.307 3.586,4.592 C 3.472,-2.376 2.604,0 0,0 m -0.138,-10.325 c -3.426,0 -4.933,2.513 -4.933,5.734 0,3.175 1.782,5.71 5.071,5.71 3.426,0 4.979,-2.421 4.979,-5.71 0,-3.199 -1.804,-5.734 -5.117,-5.734" /></g><g
           transform="translate(260.924,79.5856)"
           id="g172"><path
             id="path174"
             style="fill:#002850;fill-opacity:1;fill-rule:nonzero;stroke:none"
             d="m 0,0 c -1.211,0 -2.582,-0.73 -3.221,-1.689 v -5.597 c 0.526,-1.051 1.805,-1.873 3.061,-1.873 2.284,0 3.517,1.895 3.517,4.637 C 3.357,-1.416 1.941,0 0,0 m -0.069,-10.302 c -1.164,0 -2.421,0.48 -3.152,1.416 v -5.732 c 0,-0.275 -0.115,-0.388 -0.366,-0.388 h -0.73 c -0.251,0 -0.366,0.113 -0.366,0.388 V 0.549 c 0,0.297 0.137,0.365 0.388,0.365 h 0.548 c 0.32,0 0.458,-0.092 0.458,-0.412 v -0.89 c 0.776,0.937 2.192,1.531 3.518,1.531 2.671,0 4.636,-1.897 4.636,-5.665 0,-3.083 -1.69,-5.78 -4.934,-5.78" /></g><g
           transform="translate(270.634,69.8786)"
           id="g176"><path
             id="path178"
             style="fill:#002850;fill-opacity:1;fill-rule:nonzero;stroke:none"
             d="m 0,0 c 0,-0.274 -0.115,-0.389 -0.365,-0.389 h -0.732 c -0.252,0 -0.365,0.115 -0.365,0.389 v 10.209 c 0,0.275 0.113,0.412 0.365,0.412 h 0.708 c 0.251,0 0.366,-0.137 0.366,-0.412 L 0,9.434 c 0.981,0.913 2.283,1.416 3.54,1.416 1.142,0 2.33,-0.366 2.969,-1.348 1.279,1.005 2.627,1.348 3.815,1.348 2.672,0 3.723,-1.577 3.723,-4.113 V 0 c 0,-0.274 -0.114,-0.389 -0.365,-0.389 H 12.95 c -0.251,0 -0.365,0.115 -0.365,0.389 v 6.532 c 0,1.897 -0.525,3.175 -2.626,3.175 C 8.977,9.707 7.788,9.251 6.943,8.588 7.103,8.04 7.172,7.446 7.172,6.737 V 0 c 0,-0.274 -0.114,-0.389 -0.365,-0.389 H 6.075 C 5.824,-0.389 5.71,-0.274 5.71,0 V 6.532 C 5.71,8.314 5.275,9.707 3.22,9.707 2.078,9.707 0.891,9.068 0,8.246 Z" /></g><g
           transform="translate(295.9924,76.3884)"
           id="g180"><path
             id="path182"
             style="fill:#002850;fill-opacity:1;fill-rule:nonzero;stroke:none"
             d="m 0,0 c 0,1.805 -0.914,3.221 -2.832,3.221 -2.147,0 -3.335,-1.737 -3.541,-3.632 l 6.373,0 z m -2.581,-5.871 c 0.982,0 2.125,0.206 2.81,0.503 0.182,0.092 0.342,0.046 0.411,-0.159 L 0.8,-6.03 c 0.068,-0.206 0.022,-0.343 -0.206,-0.434 -0.914,-0.434 -2.353,-0.64 -3.313,-0.64 -3.494,0 -5.207,2.352 -5.207,5.734 0,3.175 1.942,5.71 5.14,5.71 2.718,0 4.248,-2.102 4.248,-4.66 v -0.502 c 0,-0.457 -0.068,-0.617 -0.64,-0.617 h -7.241 c 0,-2.421 1.211,-4.432 3.838,-4.432" /></g><g
           transform="translate(302.1623,69.8786)"
           id="g184"><path
             id="path186"
             style="fill:#002850;fill-opacity:1;fill-rule:nonzero;stroke:none"
             d="m 0,0 c 0,-0.274 -0.115,-0.389 -0.365,-0.389 h -0.732 c -0.251,0 -0.365,0.115 -0.365,0.389 v 10.209 c 0,0.275 0.114,0.412 0.388,0.412 h 0.685 c 0.251,0 0.367,-0.137 0.367,-0.412 L 0,9.434 c 1.051,0.936 2.513,1.416 3.814,1.416 2.672,0 3.609,-1.622 3.609,-4.113 V 0 c 0,-0.274 -0.113,-0.389 -0.365,-0.389 H 6.326 C 6.075,-0.389 5.961,-0.274 5.961,0 V 6.532 C 5.961,8.359 5.527,9.707 3.426,9.707 2.283,9.707 0.868,9.045 0,8.246 Z" /></g><g
           transform="translate(315.4817,72.6872)"
           id="g188"><path
             id="path190"
             style="fill:#002850;fill-opacity:1;fill-rule:nonzero;stroke:none"
             d="m 0,0 c 0,-0.799 0.069,-1.461 0.457,-1.826 0.274,-0.275 0.709,-0.435 1.348,-0.435 0.525,0 1.074,0.115 1.393,0.252 0.183,0.068 0.297,0.022 0.343,-0.137 l 0.137,-0.526 c 0.046,-0.182 0,-0.297 -0.229,-0.389 -0.433,-0.182 -1.187,-0.342 -1.873,-0.342 -0.89,0 -1.849,0.252 -2.352,0.777 -0.64,0.662 -0.686,1.599 -0.686,2.855 v 6.51 H -2.81 c -0.159,0 -0.251,0.024 -0.251,0.228 v 0.617 c 0,0.205 0.092,0.228 0.251,0.228 h 1.348 v 2.673 c 0,0.274 0.046,0.366 0.298,0.411 l 0.799,0.114 C -0.137,11.033 0,10.941 0,10.645 V 7.812 h 2.764 c 0.16,0 0.252,-0.023 0.252,-0.228 V 6.967 C 3.016,6.763 2.924,6.739 2.764,6.739 H 0 Z" /></g><g
           transform="translate(211.7727,122.6979)"
           id="g192"><path
             id="path194"
             style="fill:#002850;fill-opacity:1;fill-rule:nonzero;stroke:none"
             d="m 0,0 c -4.326,0 -9.444,0.792 -13.77,2.307 -1.297,0.504 -1.441,1.224 -1.082,2.306 l 1.515,4.685 c 0.36,1.226 1.152,1.37 2.378,0.937 3.389,-1.225 7.138,-2.162 10.742,-2.162 3.893,0 8.29,1.874 8.29,6.415 0,3.317 -2.451,5.118 -5.262,6.489 l -9.372,4.685 c -5.119,2.524 -8.506,6.776 -8.506,12.399 0,8.794 8.65,13.625 16.652,13.625 4.758,0 8.723,-0.721 12.903,-2.523 1.37,-0.577 1.73,-1.154 1.226,-2.38 l -1.731,-4.396 c -0.432,-1.226 -1.225,-1.298 -2.379,-0.794 -3.027,1.298 -6.631,2.235 -9.515,2.235 -3.388,0 -7.28,-1.441 -7.28,-5.478 0,-2.956 2.739,-4.686 5.118,-5.839 L 7.929,28.618 C 13.624,25.879 17.517,22.059 17.517,15.426 17.517,5.405 9.37,0 0,0" /></g><g
           transform="translate(268.8069,173.4831)"
           id="g196"><path
             id="path198"
             style="fill:#002850;fill-opacity:1;fill-rule:nonzero;stroke:none"
             d="m 0,0 h -27.031 c -1.155,0 -1.658,-0.649 -1.658,-1.803 v -5.696 h 6.896 l -6.896,-4.588 v -35.851 c 0,-1.586 0.503,-1.947 1.946,-1.947 h 5.622 c 1.226,0 1.73,0.505 1.73,1.803 v 18.67 h 13.042 c 1.37,0 2.019,0.216 2.163,1.514 l 0.505,4.325 c 0.143,1.081 -0.288,1.658 -1.658,1.658 h -14.052 v 14.417 h 18.382 c 1.37,0 2.019,0.217 2.163,1.515 l 0.504,4.325 C 1.802,-0.577 1.37,0 0,0" /></g><g
           transform="translate(304.6858,135.2047)"
           id="g200"><path
             id="path202"
             style="fill:#002850;fill-opacity:1;fill-rule:nonzero;stroke:none"
             d="m 0,0 c -3.027,-3.027 -7.208,-3.821 -12.183,-3.821 h -4.215 V 30.42 h 3.927 c 4.614,0 8.435,-0.792 11.39,-2.955 C 2.595,24.726 4.541,19.751 4.541,13.191 4.541,7.208 2.883,2.883 0,0 m 4.181,34.602 c -4.757,2.739 -10.38,3.676 -18.67,3.676 h -9.046 c -1.803,0 -2.235,-0.649 -2.235,-2.163 v -5.67 h 6.898 L -25.77,25.857 V -9.588 c 0,-1.658 0.649,-2.018 2.09,-2.018 h 12.435 c 7.136,0 13.407,1.658 17.878,5.407 4.901,4.18 7.856,10.668 7.856,19.319 0,10.669 -3.82,17.734 -10.308,21.482" /></g></g></g><g
       id="g204"><g
         clip-path="url(#clipPath210)"
         id="g206"><g
           id="g212"><g
             id="g214"><path
               id="path222"
               style="fill:url(#linearGradient220);stroke:none"
               d="m 359.708,151.994 c 0,-23.131 18.372,-58.221 54.734,-70.267 v 0 c 19.717,-6.532 31.167,-3.733 34.886,-2.889 v 0 c 0,0 -8.124,-3.744 -21.719,-3.744 v 0 c -34.8,0 -76.701,33 -76.701,75.203 v 0 c 0,9.778 4.502,18.927 12.522,25.872 v 0 c -9.801,-6.967 -14.472,-19.748 -14.472,-31.625 v 0 c 0,-39.941 40.97,-75.329 75.197,-78.389 v 0 c -0.005,0 -3.399,-0.252 -5.129,-0.252 v 0 c -34.618,0 -76.167,33.377 -76.167,74.942 v 0 c 0,6.822 1.505,13.428 4.529,19.449 v 0 c -5.005,-6.886 -6.68,-14.956 -6.68,-23.15 v 0 c 0,-32.207 26.411,-65.214 59.022,-76.966 v 0 c -38.644,10.393 -62.972,41.338 -62.972,70.116 v 0 c 0,5.215 0.778,10.251 2.335,14.986 v 0 c -2.664,-6.655 -3.777,-11.527 -3.777,-18.636 v 0 c 0,-22.429 13.462,-47.786 38.737,-63.295 v 0 c -15.86,8.59 -30.157,21.112 -37.515,37.907 v 0 c 7.997,-29.584 35.028,-51.352 67.142,-51.352 v 0 c 38.408,0 69.544,31.136 69.544,69.545 v 0 c 0,2.65 -0.149,5.266 -0.437,7.839 v 0 c 0,-0.108 -0.317,-3.215 -1.471,-7.394 v 0 c -0.781,-2.823 -1.821,-5.658 -3.116,-8.46 v 0 c -0.686,-1.485 -1.457,-2.98 -2.221,-4.328 v 0 0.001 c -1.078,-1.901 -2.268,-3.762 -3.559,-5.544 v 0 C 453.008,88.794 446.01,87.038 434.459,87.038 v 0 c -10.357,0 -25.31,2.877 -43,15.807 v 0 c -17.735,12.963 -29.102,31.989 -29,54.311 v 0 h -10e-4 c 0.032,7.647 2.623,14.817 7.988,20.401 v 0 c -7.118,-6.742 -10.738,-15.839 -10.738,-25.563" /></g></g></g></g><g
       id="g224"><g
         clip-path="url(#clipPath230)"
         id="g226"><g
           transform="translate(426.3088,120.6003)"
           id="g232"><path
             id="path234"
             style="fill:#9aa1b0;fill-opacity:1;fill-rule:nonzero;stroke:none"
             d="m 0,0 c 0.037,0 0.064,0.032 0.064,0.064 0,0.1 -1.442,0.822 -2.829,1.263 -1.333,0.426 -3.032,0.776 -5.01,0.776 -3.466,0 -6.636,-1.028 -9.609,-2.811 -1.135,-0.683 -2.258,-1.468 -3.351,-2.305 -0.57,3.458 -0.75,6.802 -0.75,9.739 0,3.446 0.248,6.33 0.404,8.18 0,0.014 0.013,0.023 0.026,0.023 0.1,0 1.909,-1.011 1.909,-4.443 0,-1.977 -0.541,-3.263 -0.541,-3.263 0,-0.014 0.014,-0.024 0.028,-0.024 0.1,0 2.033,2.217 2.033,5.364 0,2.407 -1.002,3.998 -1.002,3.998 0,0.013 0.014,0.024 0.028,0.024 0.006,0 0.012,-0.002 0.018,-0.006 1.943,-1.583 2.737,-3.667 2.737,-6.067 0,-0.657 -0.067,-1.329 -0.067,-1.329 0,-0.015 0.011,-0.02 0.023,-0.02 0.003,0 0.006,0 0.009,10e-4 0.007,0.002 0.014,10e-4 0.018,0.009 0.486,0.957 0.836,2.181 0.836,3.516 0,1.973 -0.755,3.889 -2.358,5.54 -0.186,0.193 -0.385,0.384 -0.598,0.573 -0.006,0.006 -0.009,0.012 -0.009,0.019 0,0.014 0.011,0.028 0.026,0.028 0.055,0 0.527,-0.153 0.581,-0.172 2.828,-0.984 4.086,-3.879 4.086,-6.157 v -0.049 c 0,-0.016 0.013,-0.025 0.025,-0.025 0.1,0 0.338,1.404 0.338,2.213 0,1.247 -0.336,2.271 -0.849,3.095 -0.815,1.313 -2.2,2.278 -3.6,2.702 -0.265,0.079 -0.511,0.133 -0.718,0.159 -0.014,0.002 -0.02,0.012 -0.02,0.023 0,0.012 0.009,0.026 0.025,0.028 0.297,0.028 0.598,0.041 0.854,0.041 1.201,0 2.46,-0.277 3.459,-0.956 0.978,-0.663 1.428,-1.519 1.428,-1.519 0.013,0 0.029,0.012 0.029,0.029 0,1.438 -1.253,3.305 -3.553,3.942 -0.522,0.146 -1.06,0.216 -1.569,0.216 -1.108,0 -1.821,-0.339 -1.821,-0.339 -0.013,0 -0.025,0.013 -0.025,0.026 0,0.1 1.052,1.554 3.163,1.554 0.926,0 1.494,-0.301 1.494,-0.301 0.015,0 0.026,0.014 0.026,0.028 0,0.099 -0.707,0.728 -1.268,1.041 -0.48,0.266 -0.989,0.433 -1.504,0.491 -0.14,0.017 -0.281,0.024 -0.422,0.024 -2.146,0 -3.218,-1.834 -3.218,-1.834 -0.009,0 -0.017,0.004 -0.022,0.012 -0.175,0.313 -0.343,0.658 -0.5,1.023 -0.6,1.387 -0.844,2.757 -0.844,2.757 h -10e-4 c 0,0 -0.335,-1.979 -1.343,-3.78 -0.005,-0.008 -0.014,-0.012 -0.022,-0.012 0,0 -1.072,1.834 -3.219,1.834 -0.14,0 -0.281,-0.007 -0.422,-0.024 -0.514,-0.058 -1.024,-0.225 -1.503,-0.491 -0.561,-0.312 -1.268,-0.942 -1.268,-1.041 0,-0.014 0.011,-0.028 0.024,-0.028 0,0 0.567,0.301 1.495,0.301 2.069,0 3.164,-1.434 3.164,-1.554 0,-0.013 -0.012,-0.026 -0.026,-0.026 0,0 -0.713,0.339 -1.82,0.339 -0.507,0 -1.046,-0.07 -1.569,-0.216 -2.501,-0.692 -3.553,-2.715 -3.553,-3.942 0,-0.017 0.015,-0.029 0.029,-0.029 0,0 0.449,0.856 1.428,1.519 0.999,0.679 2.259,0.956 3.458,0.956 0.257,0 0.557,-0.013 0.853,-0.041 0.017,-0.002 0.027,-0.016 0.027,-0.028 0,-0.011 -0.007,-0.021 -0.021,-0.023 -0.207,-0.026 -0.453,-0.08 -0.718,-0.159 -0.457,-0.139 -0.979,-0.358 -1.503,-0.674 -0.769,-0.463 -1.537,-1.127 -2.096,-2.028 -0.513,-0.824 -0.851,-1.848 -0.851,-3.095 0,-0.807 0.24,-2.213 0.339,-2.213 0.013,0 0.025,0.009 0.025,0.025 v 0.05 c 0,2.226 1.215,5.158 4.086,6.156 0.054,0.019 0.526,0.172 0.582,0.172 0.014,0 0.026,-0.014 0.026,-0.028 0,-0.007 -0.003,-0.013 -0.01,-0.019 -1.803,-1.588 -2.955,-3.667 -2.955,-6.113 0,-1.335 0.349,-2.559 0.835,-3.516 0.004,-0.008 0.012,-0.007 0.019,-0.009 0.003,-10e-4 0.005,-10e-4 0.008,-10e-4 0.013,0 0.024,0.005 0.024,0.02 0,0 -0.068,0.651 -0.068,1.328 0,2.47 0.845,4.527 2.737,6.068 0.006,0.004 0.012,0.006 0.018,0.006 0.015,0 0.029,-0.011 0.029,-0.024 0,0 -1.002,-1.591 -1.002,-3.998 0,-3.145 1.932,-5.364 2.032,-5.364 0.015,0 0.028,0.01 0.028,0.024 0,0 -0.54,1.286 -0.54,3.263 0,3.196 1.674,4.443 1.908,4.443 0.013,0 0.026,-0.009 0.027,-0.023 0.156,-1.85 0.403,-4.734 0.403,-8.18 0,-2.937 -0.18,-6.281 -0.75,-9.739 -1.093,0.837 -2.216,1.622 -3.351,2.305 -2.967,1.779 -6.134,2.811 -9.608,2.811 -1.978,0 -3.679,-0.35 -5.012,-0.776 -1.384,-0.441 -2.828,-1.163 -2.828,-1.263 0,-0.032 0.027,-0.064 0.065,-0.064 0,0 1.251,0.409 2.763,0.648 0.951,0.153 1.878,0.223 2.785,0.223 5.799,0 10.758,-2.908 15.196,-6.604 -1.795,-1.57 -3.436,-3.117 -4.864,-4.374 -0.794,-0.697 -1.498,-1.282 -2.096,-1.694 -0.261,-0.179 -0.503,-0.33 -0.721,-0.439 -0.316,0.434 -0.826,0.719 -1.405,0.719 -0.466,0 -0.881,-0.174 -1.203,-0.479 -0.346,-0.328 -0.537,-0.763 -0.537,-1.239 0,-0.934 0.753,-1.846 2.041,-1.846 1.793,0 3.847,1.84 5.424,3.276 1.266,1.151 4.72,4.398 5.006,4.653 0.287,-0.255 3.742,-3.502 5.007,-4.653 2.039,-1.857 3.818,-3.275 5.419,-3.275 1.295,0 2.045,0.929 2.045,1.855 0,0.485 -0.203,0.914 -0.535,1.229 -0.322,0.304 -0.736,0.479 -1.203,0.479 -0.579,0 -1.089,-0.285 -1.406,-0.719 -0.218,0.109 -0.46,0.26 -0.72,0.439 -0.598,0.412 -1.303,0.997 -2.096,1.694 -0.472,0.415 -3.664,3.324 -4.865,4.374 4.461,3.714 9.409,6.604 15.197,6.604 0.905,0 1.833,-0.07 2.783,-0.223 C -1.252,0.409 0,0 0,0" /></g></g></g><g
       id="g236"><g
         clip-path="url(#clipPath242)"
         id="g238"><g
           id="g244"><g
             id="g246"><path
               id="path254"
               style="fill:url(#linearGradient252);stroke:none"
               d="m 362.458,157.156 c 0.632,0.242 28.636,10.757 59.958,-12.445 v 0 C 454.097,121.242 451.79,90.969 451.79,90.969 v 0 l -0.008,-0.104 c 0.004,0.002 0.005,0.003 0.008,0.004 v 0 c 0.88,0.557 1.831,1.26 2.824,2.099 v 0 c 0.539,44.251 -37.699,66.495 -48.706,71.126 v 0 c 4.08,-0.528 51.045,-20.173 54.191,-65.524 v 0 c 0.779,0.937 1.555,1.936 2.321,2.993 v 0 c -1.963,38.158 -31.977,58.47 -38.761,63.582 v 0 c 10.59,-5.662 37.685,-23.993 42.32,-58.039 v 0 c 0.782,1.38 1.526,2.824 2.221,4.328 v 0 c -2.659,25.195 -19.545,44.552 -30.942,54.109 v 0 c 12.98,-8.531 30.323,-28.1 33.343,-48.017 v 0 c 0.174,0.532 0.339,1.067 0.499,1.609 v 0 c -1.294,14.079 -10.358,31.674 -19.942,41.908 v 0 c 13.197,-13.111 19.965,-27.224 21.124,-37.029 v 0 c 0.287,1.447 0.505,3.041 0.505,3.269 v 0 c -3.919,34.858 -33.474,61.71 -69.107,61.71 v 0 c -28.052,0 -41.145,-14.522 -41.222,-31.837" /></g></g></g></g></g></svg>